<svg width="32" height="32" fill="none" xmlns="http://www.w3.org/2000/svg">
  <path d="M26.156 19.512 12.95 11a.554.554 0 0 0-.844.585l3.248 15.036a.554.554 0 0 0 .97.238l2.29-2.75 3.343 3.81a.557.557 0 0 0 .767.066l2.906-2.333a.554.554 0 0 0 .07-.799l-3.149-3.59 3.421-.74a.556.556 0 0 0 .184-1.01ZM11.827 7.663a.556.556 0 0 1-.66-.425l-.704-3.258a.556.556 0 0 1 1.086-.235l.704 3.258a.556.556 0 0 1-.426.66Zm-3.405 5.283-3.258.704a.556.556 0 0 1-.235-1.087l3.258-.703a.556.556 0 0 1 .235 1.086Zm11.945-2.581-3.257.704a.556.556 0 0 1-.235-1.086l3.258-.704a.556.556 0 0 1 .235 1.086ZM9.031 9.598a.558.558 0 0 1-.419-.075L5.81 7.718a.556.556 0 0 1 .602-.934l2.802 1.805a.556.556 0 0 1-.183 1.01Zm-.48 8.946a.556.556 0 0 1-.585-.843L9.775 14.9a.556.556 0 0 1 .934.601L8.9 18.303a.554.554 0 0 1-.35.241Zm6.622-10.273a.556.556 0 0 1-.585-.843l1.807-2.801a.555.555 0 1 1 .935.602l-1.807 2.8a.554.554 0 0 1-.35.242Z" fill="#5753DF"/>
</svg>
