<?xml version="1.0" encoding="UTF-8"?>
<svg width="828px" height="150px" viewBox="0 0 828 150" version="1.1" xmlns="http://www.w3.org/2000/svg" xmlns:xlink="http://www.w3.org/1999/xlink">
    <title>logo-brand-ext-bitbucket-grey-400</title>
    <defs>
        <filter id="filter-1">
            <feColorMatrix in="SourceGraphic" type="matrix" values="0 0 0 0 0.611765 0 0 0 0 0.639216 0 0 0 0 0.686275 0 0 0 1.000000 0"></feColorMatrix>
        </filter>
    </defs>
    <g id="logo-brand-ext-bitbucket-grey-400" stroke="none" stroke-width="1" fill="none" fill-rule="evenodd">
        <g filter="url(#filter-1)" id="Group">
            <g transform="translate(56.000000, 24.000000)">
                <path d="M189.547757,8 C209.275389,8 218.846386,17.2445521 218.846386,32.0899343 C218.846386,43.2279488 213.54218,50.0062262 202.649314,52.5361467 C216.93888,54.779661 224,62.1943964 224,75.209962 C224,89.9121411 213.54218,100 191.907042,100 L152,100 L152,8 L189.547757,8 Z M165.5,19.7307378 L165.5,47.4285714 L188.194838,47.4285714 C200.806828,47.4285714 206,41.9179235 206,32.9691455 C206,24.0203675 200.368443,19.6825397 188.194838,19.6825397 L165.5,19.7307378 Z M165.5,57.7155527 L165.5,86.8571429 L192.294777,86.8571429 C204.823281,86.8571429 210.5,82.437335 210.5,73.0310773 C210.5,63.0581776 205.104634,57.6507937 192.013424,57.6507937 L165.5,57.7155527 Z" id="Shape" fill="#000000" fill-rule="nonzero"></path>
                <path d="M244,2.02126019 C246.160371,1.84889335 248.281422,2.73090429 249.812941,4.43849467 C251.34446,6.14608505 252.135526,8.51098285 251.980932,10.919721 C251.980932,15.8342052 248.407747,19.8181818 244,19.8181818 C239.592253,19.8181818 236.019068,15.8342052 236.019068,10.919721 C235.864474,8.51098285 236.65554,6.14608505 238.187059,4.43849467 C239.718578,2.73090429 241.839629,1.84889335 244,2.02126019 Z M237.454545,30.2121212 L249.090909,30.2121212 L249.090909,100 L237.454545,100 L237.454545,30.2121212 Z" id="Shape" fill="#000000" fill-rule="nonzero"></path>
                <path d="M296.575295,88.0963813 C299.076323,88.0193802 301.563611,87.6843803 304,87.0963866 L304,98.8705178 C301.408043,99.6349039 298.723908,100.015052 296.028212,100 C281.303851,100 274.144872,91.0641075 274.144872,77.8545002 L274.144872,40.4030858 L263,40.4030858 L263,29.1128231 L274.144872,29.1128231 L274.144872,14 L285.633626,14 L285.633626,29.0483073 L303.921845,29.0483073 L303.921845,40.33857 L285.633626,40.33857 L285.633626,77.596437 C285.633626,83.8383394 289.213115,88.0963813 296.575295,88.0963813 Z" id="Path" fill="#000000" fill-rule="nonzero"></path>
                <path d="M353.972562,102 C343.563482,102 335.570217,97.3247985 331.273634,88.1033665 L331.273634,100.581318 L319,100.581318 L319,0 L331.354702,0 L331.354702,42.4153627 C335.926914,33.0488383 344.487653,28.2285443 355.464206,28.2285443 C374.434023,28.2285443 384,44.2532006 384,65.1142722 C383.935146,85.1209104 373.947618,102 353.972562,102 Z M352.766403,39.9130435 C341.891212,39.9130435 332.295455,46.9520477 332.295455,62.9082126 L332.295455,68.6570048 C332.295455,84.6131697 341.155537,91.6521739 351.486969,91.6521739 C365.14493,91.6521739 372.181818,82.4573726 372.181818,65.7826087 C372.053875,48.5362319 365.304859,39.9130435 352.766403,39.9130435 Z" id="Shape" fill="#000000" fill-rule="nonzero"></path>
                <path d="M396,30 L408.144385,30 L408.144385,72.6866594 C408.144385,85.3915953 413.229947,91.0382334 424.796791,91.0382334 C436.026738,91.0382334 443.855615,83.5628545 443.855615,69.3018848 L443.855615,30 L456,30 L456,100.582977 L443.855615,100.582977 L443.855615,89.000952 C439.447349,97.1708151 430.837973,102.187415 421.55615,101.994636 C405.320856,101.994636 396,90.7655264 396,71.3552078 L396,30 Z" id="Path" fill="#000000" fill-rule="nonzero"></path>
                <path d="M525,98.7685548 C520.774748,101.046724 514.292828,102 507.810907,102 C482.747481,102 471,86.6506355 471,64.8383807 C471,43.3654277 482.683462,28.0160632 507.810907,28.0160632 C513.599952,27.845148 519.348656,29.0401435 524.599881,31.506024 L524.599881,42.816082 C519.595458,40.4591263 514.115171,39.3138989 508.595139,39.4715363 C490.285714,39.4715363 482.827504,51.1208961 482.827504,64.9191669 C482.827504,78.7174377 490.429757,90.3667974 508.883225,90.3667974 C514.327995,90.512699 519.752979,89.647385 524.887967,87.8139558 L525,98.7685548 Z" id="Path" fill="#000000" fill-rule="nonzero"></path>
                <polygon id="Path" fill="#000000" fill-rule="nonzero" points="540 100 540 0 552.203117 0 552.203117 62.5100176 582.702848 29.507934 598.597528 29.507934 565.244492 64.1128386 600 100 583.396024 100 552.186996 66.9979163 552.186996 100"></polygon>
                <path d="M640.091023,102 C613.602716,102 602,86.6473029 602,64.8303123 C602,43.3526971 613.892381,28 635.424189,28 C657.22957,28 666,43.2234112 666,64.8303123 L666,70.373444 L614.310787,70.373444 C616.016595,82.4616729 623.805381,90.283468 640.509429,90.283468 C647.854581,90.2819223 655.142445,88.9855516 662.041237,86.4533741 L662.041237,97.7658877 C656.231833,100.868749 647.31657,102 640.091023,102 Z M613.906977,59.08 L654.093023,59.08 C653.372785,45.8903835 647.316232,38.3603702 634.941221,38.3603702 C621.813234,38.2958733 615.200133,46.6643464 613.906977,58.9993789 L613.906977,59.08 Z" id="Shape" fill="#000000" fill-rule="nonzero"></path>
                <path d="M708.394205,88.0963813 C710.956233,88.0193802 713.504187,87.6843803 716,87.0963866 L716,98.8705178 C713.344825,99.6349039 710.595223,100.015052 707.833778,100 C692.750286,100 685.416698,91.0641075 685.416698,77.8545002 L685.416698,40.4030858 L674,40.4030858 L674,29.1128231 L685.416698,29.1128231 L685.416698,14 L697.249714,14 L697.249714,29.0483073 L715.983988,29.0483073 L715.983988,40.33857 L697.249714,40.33857 L697.249714,77.596437 C697.265726,83.8383394 700.900496,88.0963813 708.394205,88.0963813 Z" id="Path" fill="#000000" fill-rule="nonzero"></path>
                <polygon id="Path" points="38.8215557 70 60.7153025 70 66 40 33 40"></polygon>
                <path d="M3.27781718,11.0002558 C2.32182814,10.9883046 1.40931559,11.3956214 0.785060549,12.1132109 C0.160805512,12.8308003 -0.111291743,13.7852083 0.0417587345,14.7204153 L13.7788268,97.3597461 C14.1321237,99.4472075 15.9469317,100.981934 18.0827846,100.999738 L83.9851147,100.999738 C85.5882347,101.019915 86.9647855,99.8740656 87.2211732,98.3057532 L100.958241,14.7364493 C101.111292,13.8012423 100.839194,12.8468343 100.214939,12.1292449 C99.5906844,11.4116554 98.6781719,11.0043386 97.7221828,11.0165571 L3.27781718,11.0002558 Z M60.3579129,71.4917108 L39.7435106,71.4917108 L34.1617647,41.983684 L65.3529412,41.983684 L60.3579129,71.4917108 Z" id="Shape" fill="#000000" fill-rule="nonzero"></path>
                <path d="M95,41 L65.1293018,41 L60.1163716,70.6054475 L39.4280883,70.6054475 L15,99.9372176 C15.7742625,100.614493 16.7614126,100.991108 17.7849612,101 L82.6188582,101 C84.1956007,101.020259 85.5495019,99.8697893 85.801671,98.2951536 L95,41 Z" id="Path" fill="#000000" fill-rule="nonzero"></path>
            </g>
        </g>
    </g>
</svg>