<?xml version="1.0" encoding="UTF-8"?>
<svg width="566px" height="173px" viewBox="0 0 566 173" version="1.1" xmlns="http://www.w3.org/2000/svg" xmlns:xlink="http://www.w3.org/1999/xlink">
    <title>logo-brand-ext-gitlab-grey-400</title>
    <defs>
        <filter id="filter-1">
            <feColorMatrix in="SourceGraphic" type="matrix" values="0 0 0 0 0.611765 0 0 0 0 0.639216 0 0 0 0 0.686275 0 0 0 1.000000 0"></feColorMatrix>
        </filter>
    </defs>
    <g id="logo-brand-ext-gitlab-grey-400" stroke="none" stroke-width="1" fill="none" fill-rule="evenodd">
        <g filter="url(#filter-1)" id="Group-2">
            <g transform="translate(0.299878, -0.972988)">
                <path d="M187.147478,97.8797682 L177.190608,67.1997247 C177.195021,67.2135239 177.196677,67.2278751 177.20109,67.2416743 C177.196125,67.2256672 177.193366,67.2096602 177.188952,67.1936531 C177.188401,67.1925492 177.188401,67.1919972 177.188401,67.1908932 C177.188401,67.1903413 177.188401,67.1897893 177.188401,67.1897893 L157.421416,6.30660292 C156.340599,3.09911624 153.364627,0.946440612 149.953901,0.973235082 C146.533244,0.991150029 143.639479,3.10187608 142.581282,6.35352021 L123.818426,64.1434773 L64.6162306,64.1434773 L45.8186164,6.3502084 C44.761523,3.10187608 41.8677574,0.991150029 38.4471003,0.973235082 C38.4333073,0.973235082 38.4200661,0.973235082 38.4057214,0.973235082 C35.0374776,0.973235082 32.0565404,3.11291544 30.9635853,6.35628005 L11.2512212,67.1848216 L11.2484626,67.1925492 C11.2484626,67.1931011 11.2484626,67.1936531 11.2484626,67.1942051 C11.2434971,67.2096602 11.2412902,67.2251153 11.2363248,67.2405704 C11.2407385,67.2267712 11.2423937,67.21242 11.2468074,67.1986208 L1.25297148,97.8808721 C-0.25046249,102.512436 1.38097026,107.546386 5.3136225,110.407788 L91.6046634,173.132892 C91.617353,173.142276 91.6316977,173.147795 91.6443872,173.157179 C91.6813524,173.183673 91.7172141,173.21072 91.754731,173.235558 C91.719421,173.211824 91.6863178,173.185881 91.6515595,173.161595 C91.6515595,173.161595 91.6515595,173.161043 91.6510078,173.161043 C91.656525,173.165458 91.6631456,173.168218 91.6692146,173.172082 C91.67418,173.175394 91.6791455,173.177602 91.684111,173.180914 C91.6846627,173.181465 91.6852144,173.182017 91.6863178,173.182569 C91.8198338,173.2753 91.9583153,173.360303 92.1017622,173.438131 C92.121624,173.44917 92.139279,173.462969 92.1591409,173.473457 C92.1596926,173.473457 92.1596926,173.474009 92.1602444,173.474009 C92.1723822,173.48008 92.1834166,173.487808 92.1955544,173.493879 C92.2049336,173.498295 92.2148645,173.501055 92.223692,173.505471 C92.2303127,173.508783 92.237485,173.51099 92.2441056,173.51375 C92.2601055,173.521478 92.2777605,173.526446 92.2937603,173.534725 C92.3687941,173.570603 92.4476899,173.599857 92.5249305,173.63132 C92.5972057,173.661126 92.667274,173.6959 92.7412044,173.721842 C92.7445147,173.722946 92.7472733,173.724602 92.7505836,173.725706 C92.7627214,173.730122 92.7737558,173.736193 92.7864453,173.740609 C92.8018934,173.746129 92.8167898,173.752201 92.832238,173.757168 C92.8383069,173.758824 92.8443758,173.759928 92.8504447,173.761584 C92.8697549,173.767656 92.8907202,173.770415 92.9100303,173.775935 C92.9172027,173.778143 92.9254785,173.779247 92.9332025,173.781455 C93.0369257,173.812917 93.1445109,173.835548 93.2515443,173.859282 C93.293475,173.868666 93.3337504,173.881913 93.3762328,173.889641 C93.3823017,173.890745 93.3878189,173.892952 93.3944395,173.894056 C93.4082325,173.896816 93.420922,173.901784 93.4352667,173.903992 C93.4578872,173.907856 93.4799559,173.915031 93.5031281,173.918343 C93.5213349,173.921103 93.5400933,173.919999 93.5583,173.922759 C93.5616103,173.923311 93.5643689,173.922759 93.5676792,173.923311 C93.5687827,173.923311 93.5693344,173.923311 93.5704378,173.923311 C93.7740221,173.952565 93.980365,173.972988 94.1905699,173.972988 C94.1916733,173.972988 94.1927767,173.972988 94.1944319,173.972988 L94.1944319,173.972988 C94.1949836,173.972988 94.1955353,173.972988 94.1955353,173.972988 C94.1955353,173.972988 94.1960871,173.972988 94.1960871,173.972988 C94.1966388,173.972988 94.1971905,173.972988 94.1977422,173.972988 C94.4084988,173.972988 94.6148417,173.952565 94.8189777,173.923311 C94.8195294,173.923311 94.8206328,173.923311 94.8211846,173.923311 C94.8244949,173.922759 94.8278052,173.923311 94.8311155,173.922759 C94.8493222,173.919999 94.8686324,173.921103 94.8868391,173.918343 C94.9100113,173.914479 94.9320801,173.907856 94.9552523,173.903992 C94.9690452,173.901784 94.9817348,173.896816 94.9955277,173.894056 C95.0015966,173.892952 95.0071138,173.890745 95.0131827,173.889641 C95.0562168,173.881361 95.0975957,173.868114 95.1406298,173.85873 C95.2460081,173.835548 95.3519381,173.812917 95.4551096,173.782007 C95.4622819,173.779799 95.4694543,173.779247 95.4766266,173.777039 C95.4970402,173.770967 95.5180055,173.768208 95.5384191,173.762136 C95.544488,173.759928 95.5511086,173.759376 95.5571776,173.75772 C95.5731774,173.752752 95.5886255,173.746129 95.6040737,173.740609 C95.6162115,173.736193 95.6272459,173.730122 95.6393837,173.725706 C95.642694,173.724602 95.6454526,173.722946 95.6487629,173.721842 C95.727107,173.694244 95.8010373,173.657814 95.8777262,173.626352 C95.948898,173.596546 96.0217249,173.570051 96.0912414,173.536933 C96.1083447,173.528653 96.1265514,173.523686 96.143103,173.515406 C96.1497236,173.512094 96.1574477,173.509887 96.1640683,173.506575 C96.1734476,173.502159 96.1833785,173.499399 96.1927577,173.494431 C96.2054473,173.487808 96.2175851,173.48008 96.2297229,173.474009 C96.2297229,173.474009 96.2302746,173.474009 96.2302746,173.473457 C96.2506882,173.462969 96.2688949,173.448066 96.2893085,173.437027 C96.431652,173.359751 96.5695817,173.2753 96.702546,173.183121 C96.7130286,173.175946 96.7251664,173.170426 96.7362008,173.162699 C96.7389594,173.160491 96.7422697,173.159387 96.7450283,173.157179 C96.7577179,173.147795 96.7726143,173.141724 96.7853038,173.13234 L183.088483,110.40558 C187.01948,107.545282 188.650361,102.511885 187.147478,97.8797682 Z M150.426195,12.3381823 L167.483905,64.111831 L133.36904,64.111831 L150.426195,12.3381823 Z M164.956878,72.9512344 L158.017496,81.8469149 L106.835257,147.454777 L131.046039,72.9512344 L164.956878,72.9512344 L164.956878,72.9512344 Z M82.8284999,147.454777 L24.7068783,72.9512344 L24.7068783,72.9512344 L58.6387056,72.9512344 L82.8284999,147.454777 Z M39.2061468,12.3381823 L56.2947161,64.111831 L22.1798512,64.111831 L39.2061468,12.3381823 Z M10.5240751,103.346459 C9.68860161,102.740844 9.34250835,101.671821 9.66269972,100.690648 L17.0833138,78.002322 L71.4568783,147.454777 L10.5240751,103.346459 Z M91.7864727,172.821161 C91.7693694,172.807362 91.7528179,172.792459 91.7362663,172.778108 C91.732956,172.775348 91.7296457,172.771484 91.7257836,172.768724 C91.6926805,172.741126 91.6601291,172.712976 91.6281294,172.684273 C91.5652334,172.629629 91.5034409,172.57388 91.444407,172.515371 C91.4493725,172.519787 91.4548897,172.523651 91.4598551,172.528067 C91.4664758,172.534138 91.4736481,172.539106 91.4802687,172.545178 C91.6066124,172.666058 91.7395766,172.779764 91.8786098,172.884638 C91.8802649,172.885741 91.8813684,172.887397 91.8830235,172.888501 C91.8896441,172.893469 91.8951613,172.899541 91.901782,172.90506 C91.8631616,172.877462 91.8234379,172.850416 91.7864727,172.821161 Z M94.1809588,155.031409 L80.1303121,111.535156 L67.6663377,72.9512344 L120.733905,72.9512344 L94.1809588,155.031409 Z M98.0372823,172.682341 C98.0041792,172.711044 97.9721795,172.739746 97.9385246,172.767344 C97.9346626,172.770656 97.9308006,172.77452 97.9269385,172.777832 C97.9098352,172.791631 97.8938354,172.806534 97.8772838,172.820333 C97.8408704,172.849588 97.8011466,172.876082 97.763078,172.904232 C97.7696986,172.899265 97.7752158,172.892641 97.7823882,172.888225 C97.7834916,172.887121 97.784595,172.886017 97.7856985,172.884914 C97.9247316,172.78004 98.0571442,172.667438 98.1823844,172.546558 C98.1873498,172.54159 98.1934187,172.537726 98.1983842,172.53331 C98.2050048,172.527239 98.2121772,172.522271 98.2182461,172.516199 C98.1597639,172.573604 98.0990748,172.628249 98.0372823,172.682341 Z M177.878778,103.346883 L116.943365,147.454777 L171.344767,78.002322 L178.737007,100.687041 C179.05781,101.67288 178.712754,102.742748 177.878778,103.346883 Z" id="Shape" fill="#000000" fill-rule="nonzero"></path>
                <g id="Group" transform="translate(220.700122, 39.972988)" fill="#231F20" fill-rule="nonzero">
                    <polygon id="path14_9_" points="174.909787 2.53408924 162.747788 2.53408924 162.803577 93.4407106 212.065253 93.4407106 212.065253 82.1962609 174.965576 82.1962609"></polygon>
                    <g id="g24_9_" transform="translate(218.388005, 21.472969)">
                        <path d="M40.2814819,55.485758 C37.2465758,58.6838815 32.2251856,61.8820049 25.3828516,61.8820049 C16.222953,61.8820049 12.5258855,57.2811958 12.5258855,51.2777009 C12.5258855,42.244405 18.7060581,37.924133 31.8389248,37.924133 C34.3220298,37.924133 38.2949979,38.2046701 40.3366621,38.5974221 L40.3366621,55.485758 L40.2814819,55.485758 L40.2814819,55.485758 Z M27.8107766,0.219941119 C18.0990768,0.219941119 9.15989863,3.69860168 2.20720449,9.58988165 L6.45607313,17.1082771 C11.3671031,14.1906908 17.3817354,11.2731045 26.045013,11.2731045 C35.9222531,11.2731045 40.2814819,16.4349879 40.2814819,25.0755319 L40.2814819,29.5080187 C38.350178,29.1152667 34.3772099,28.8347296 31.949285,28.8347296 C10.8704821,28.8347296 0.165540337,36.353125 0.165540337,52.0632049 C0.165540337,66.1461694 8.66327762,73.2157054 21.5202438,73.2157054 C30.1835214,73.2157054 38.5157183,69.1759706 41.3850842,62.6114014 L43.5922887,71.5324826 L52.090026,71.5324826 L52.090026,24.8511022 C52.0348458,10.0948485 45.7443131,0.219941119 27.8107766,0.219941119 L27.8107766,0.219941119 Z" id="path26_9_"></path>
                    </g>
                    <g id="g28_9_" transform="translate(286.673725, 2.534089)">
                        <path d="M23.6190588,80.9478385 C19.0404233,80.9478385 15.0201579,80.3941294 12.0049589,79.0098567 L12.0049589,41.7452353 L12.0049589,37.4263044 C16.1368983,33.9933081 21.273904,31.5016172 27.8068351,31.5016172 C39.588446,31.5016172 44.1112445,39.7518826 44.1112445,53.0962715 C44.1112445,72.0331222 36.7965951,80.9478385 23.6190588,80.9478385 M28.7560644,19.7076137 C17.8678459,19.7076137 12.0049589,27.0719445 12.0049589,27.0719445 L12.0049589,15.4440538 L11.9491219,0.0509412358 L6.47709413,0.0509412358 L0.0558370183,0.0509412358 L0.111674037,87.8138311 C6.086235,90.305522 14.2384397,91.6344238 23.1165256,91.6344238 C45.8421921,91.6344238 56.7862477,77.2379876 56.7862477,52.3764497 C56.7304106,32.7197772 46.6239103,19.7076137 28.7560644,19.7076137" id="path30_9_"></path>
                    </g>
                    <g id="g32_9_" transform="translate(0.885339, 0.008905)">
                        <path d="M43.2060279,11.7877837 C53.8557896,11.7877837 60.7533036,15.3477033 65.2228927,18.9632467 L70.4098232,9.89657647 C63.401949,3.66671718 53.9109697,0.329292562 43.757829,0.329292562 C18.1542569,0.329292562 0.220720449,16.070812 0.220720449,47.8319696 C0.220720449,81.0949683 19.5889398,94.0553006 41.7161649,94.0553006 C52.8073674,94.0553006 62.2431666,91.4409846 68.4233392,88.8266687 L68.1474386,53.2830965 L68.1474386,49.1113157 L68.1474386,42.102724 L35.3152718,42.102724 L35.3152718,53.2830965 L56.2837145,53.2830965 L56.5596151,80.2606122 C53.8006094,81.6512057 49.0551198,82.7636806 42.5990467,82.7636806 C24.8310505,82.7636806 12.9121463,71.4720607 12.9121463,47.7207221 C12.8569662,23.5243937 25.1621312,11.7877837 43.2060279,11.7877837" id="path34_9_"></path>
                    </g>
                    <g id="g36_9_" transform="translate(117.223974, 2.534089)">
                        <path d="M11.9700158,0.327795778 L0,0.327795778 L0.0561972572,15.4440538 L0.0561972572,21.6455955 L0.0561972572,25.2447046 L0.0561972572,31.5569881 L0.0561972572,67.5480786 L0.0561972572,67.6588204 C0.0561972572,82.2213693 6.46268458,91.9666492 24.7267932,91.9666492 C27.2556697,91.9666492 29.728349,91.7451656 32.0886338,91.3021983 L32.0886338,80.7263548 C30.3465189,81.0032094 28.4920094,81.1139512 26.5251054,81.1139512 C16.4657964,81.1139512 12.026213,76.0198276 12.026213,67.4927077 L12.026213,31.5016172 L32.0886338,31.5016172 L32.0886338,21.6455955 L12.026213,21.6455955 L11.9700158,0.327795778 L11.9700158,0.327795778 Z" id="path38_9_"></path>
                    </g>
                    <polygon id="path40_28_" points="86.8747649 93.4407106 98.2557183 93.4407106 98.2557183 23.9981526 86.8747649 23.9981526"></polygon>
                    <polygon id="path42_9_" points="86.8747649 13.8974169 98.2557183 13.8974169 98.2557183 2.53408924 86.8747649 2.53408924"></polygon>
                </g>
            </g>
        </g>
    </g>
</svg>