<?xml version="1.0" encoding="UTF-8"?>
<svg width="718px" height="151px" viewBox="0 0 718 151" version="1.1" xmlns="http://www.w3.org/2000/svg" xmlns:xlink="http://www.w3.org/1999/xlink">
    <title>logo-brand-ext-circle-ci-grey-400</title>
    <defs>
        <filter id="filter-1">
            <feColorMatrix in="SourceGraphic" type="matrix" values="0 0 0 0 0.611765 0 0 0 0 0.639216 0 0 0 0 0.686275 0 0 0 1.000000 0"></feColorMatrix>
        </filter>
    </defs>
    <g id="logo-brand-ext-circle-ci-grey-400" stroke="none" stroke-width="1" fill="none" fill-rule="evenodd" transform="translate(0.000000, 1.000000)">
        <g filter="url(#filter-1)" id="circle-logo-horizontal-black-2">
            <g transform="translate(43.000000, 9.000000)">
                <path d="M559.783657,106.554217 C578.831427,106.554217 594.813324,93.5827746 599.315705,76.0477318 C599.342784,75.9210563 599.365239,75.78913 599.365239,75.6552346 C599.365239,74.5886661 598.494748,73.725566 597.426118,73.725566 L580.97265,73.725566 C580.191982,73.725566 579.518309,74.1850109 579.213175,74.8525187 L579.208551,74.8498933 C575.828299,82.1596617 568.40733,87.2411223 559.783657,87.2411223 C547.981173,87.2411223 538.405772,77.7319255 538.405772,65.9990155 C538.405772,54.2680745 547.981173,44.7562523 559.783657,44.7562523 C568.40733,44.7562523 575.828299,49.8377129 579.208551,57.148794 L579.213175,57.1455122 C579.518309,57.8077692 580.191982,58.274434 580.97265,58.274434 L597.426118,58.274434 C598.494748,58.274434 599.365239,57.4093649 599.365239,56.34214 C599.365239,56.2082446 599.342784,56.0848509 599.315705,55.9562063 C594.817948,38.4211635 578.831427,25.4457831 559.783657,25.4457831 C537.251943,25.4457831 518.972292,43.6076401 518.972292,65.9990155 C518.972292,88.3969544 537.251943,106.554217 559.783657,106.554217 Z M629.612091,27.0361446 L629.612091,102.241787 C629.612091,103.304852 628.755567,104.168675 627.70553,104.168675 L612.419923,104.168675 C611.36534,104.168675 610.508816,103.304852 610.508816,102.241787 L610.508816,27.0361446 L629.612091,27.0361446 Z M620.458438,2.66453526e-14 C614.085472,2.66453526e-14 608.916877,5.16419297 608.916877,11.5301205 C608.916877,17.8980073 614.085472,23.060241 620.458438,23.060241 C626.835982,23.060241 632,17.8980073 632,11.5301205 C632,5.16419297 626.835982,2.66453526e-14 620.458438,2.66453526e-14 Z M439.375315,58.0481928 C442.754201,45.6723128 453.945982,36.5783133 467.238842,36.5783133 C480.531701,36.5783133 491.714313,45.6723128 495.093199,58.0481928 L439.375315,58.0481928 Z M467.238856,25.4457831 C444.816177,25.4457831 426.639798,43.6010766 426.639798,65.9990155 C426.639798,88.394329 444.816177,106.554217 467.238856,106.554217 C483.08808,106.554217 496.802654,97.4755856 503.487803,84.2455415 C503.621835,83.9823452 503.697392,83.6922386 503.697392,83.377847 C503.697392,82.3093095 502.831443,81.4481784 501.763791,81.4481784 L492.792222,81.4481784 C492.153601,81.4481784 491.585939,81.760601 491.23772,82.2423618 C486.017719,89.917717 477.219603,94.9657038 467.238856,94.9657038 C452.532842,94.9657038 440.395108,84.0309151 438.503556,69.8596653 L505.845838,69.8596653 C506.881954,69.8596653 507.721622,69.0457915 507.77484,68.0264802 C507.810319,67.3550343 507.828715,66.6783376 507.828715,65.9990155 C507.828715,43.6010766 489.656936,25.4457831 467.238856,25.4457831 Z M412.707397,2.38554217 L404.750855,2.38554217 C403.647921,2.38554217 402.760705,3.25255866 402.760705,4.32021251 L402.760705,103.029843 C402.760705,104.096839 403.647921,104.963855 404.750855,104.963855 L412.707397,104.963855 C413.806274,104.963855 414.700252,104.096839 414.700252,103.029843 L414.700252,4.32021251 C414.700252,3.25255866 413.806274,2.38554217 412.707397,2.38554217 Z M389.677718,81.4481784 L380.685727,81.4481784 C380.059007,81.4481784 379.504043,81.7468176 379.155134,82.2062625 C373.933341,89.9019646 365.100005,94.9657038 355.083669,94.9657038 C339.031856,94.9657038 326.027406,81.9968869 326.027406,65.9990155 C326.027406,50.0004877 339.031856,37.0329835 355.083669,37.0329835 C365.100005,37.0329835 373.933341,42.097379 379.155134,49.7911121 C379.508652,50.252526 380.063615,50.5505089 380.685727,50.5505089 L389.677718,50.5505089 C390.748805,50.5505089 391.617128,49.684127 391.617128,48.6195276 C391.617128,48.305136 391.536813,48.0130603 391.402516,47.7518331 C384.708062,34.5231017 370.957735,25.4457831 355.083669,25.4457831 C332.617846,25.4457831 314.40806,43.6010766 314.40806,65.9990155 C314.40806,88.394329 332.617846,106.554217 355.083669,106.554217 C370.957735,106.554217 384.708062,97.4755856 391.402516,84.2455415 C391.536813,83.9823452 391.617128,83.6922386 391.617128,83.377847 C391.617128,82.3093095 390.748805,81.4481784 389.677718,81.4481784 Z M312.501489,25.4457831 C300.803868,25.9998379 291.461538,31.610302 285.410705,40.180342 L285.410705,29.2760165 C285.410705,28.2101207 284.544141,27.3388036 283.477197,27.3388036 L275.745795,27.3388036 C274.677538,27.3388036 273.813602,28.2101207 273.813602,29.2760165 L273.813602,103.024664 C273.813602,104.094517 274.677538,104.963855 275.745795,104.963855 L283.477197,104.963855 C284.544141,104.963855 285.410705,104.094517 285.410705,103.024664 L285.410705,66.1523189 C285.410705,50.7284895 297.361922,38.1092325 312.469954,37.1106148 C313.538212,37.1106148 314.40806,36.2399573 314.40806,35.1661464 L314.40806,27.386294 C314.40806,26.3223769 313.555294,25.4662304 312.501489,25.4457831 Z M262.670025,102.241787 L262.670025,27.0361446 L250.730479,27.0361446 L250.730479,102.241787 C250.730479,103.304852 251.624508,104.168675 252.722094,104.168675 L260.679763,104.168675 C261.778701,104.168675 262.670025,103.304852 262.670025,102.241787 Z M264.261965,11.5307623 C264.261965,15.7025898 260.879068,19.0843373 256.700573,19.0843373 C252.524649,19.0843373 249.138539,15.7025898 249.138539,11.5307623 C249.138539,7.3589348 252.524649,3.97590361 256.700573,3.97590361 C260.879068,3.97590361 264.261965,7.3589348 264.261965,11.5307623 Z M236.849087,81.4481784 L227.859991,81.4481784 C227.230702,81.4481784 226.681061,81.7468176 226.324288,82.2062625 C221.10632,89.9019646 212.276522,94.9657038 202.256602,94.9657038 C186.209723,94.9657038 173.204628,81.9968869 173.204628,65.9990155 C173.204628,50.0004877 186.209723,37.0329835 202.256602,37.0329835 C212.276522,37.0329835 221.10632,42.097379 226.328238,49.7911121 C226.681061,50.252526 227.235968,50.5505089 227.859991,50.5505089 L236.849087,50.5505089 C237.920722,50.5505089 238.790932,49.684127 238.790932,48.6195276 C238.790932,48.305136 238.706676,48.0130603 238.578316,47.7518331 C231.880597,34.5231017 218.131019,25.4457831 202.256602,25.4457831 C179.793736,25.4457831 161.581864,43.6010766 161.581864,65.9990155 C161.581864,88.394329 179.793736,106.554217 202.256602,106.554217 C218.131019,106.554217 231.880597,97.4755856 238.578316,84.2455415 C238.706676,83.9823452 238.790932,83.6922386 238.790932,83.377847 C238.790932,82.3093095 237.920722,81.4481784 236.849087,81.4481784 Z M64.2772343,2.84217094e-14 C33.3457293,2.84217094e-14 7.38852923,21.1086145 0.0831580779,49.6467565 C0.033659222,49.8544835 0,50.0661547 0,50.287029 C0,52.0224699 1.41302734,53.4292288 3.15604705,53.4292288 L29.8629898,53.4292288 C31.1347804,53.4292288 32.2230952,52.6732602 32.7253436,51.5938686 L32.7299635,51.5951833 C38.2170767,39.6975528 50.2697181,31.4265993 64.2772343,31.4265993 C83.4412114,31.4265993 98.9851721,46.9088356 98.9851721,66.0006574 C98.9851721,85.0931365 83.4412114,100.575373 64.2772343,100.575373 C50.2697181,100.575373 38.2170767,92.3044193 32.7299635,80.403502 L32.7253436,80.4100756 C32.2230952,79.3287119 31.1347804,78.574058 29.8629898,78.574058 L3.15604705,78.574058 C1.41302734,78.574058 0,79.9768727 0,81.7169152 C0,81.9318732 0.033659222,82.1369707 0.0785381847,82.3427257 C7.38192938,110.88284 33.3397894,132 64.2772343,132 C100.869429,132 130.539043,102.446888 130.539043,66.0006574 C130.539043,29.5504826 100.869429,2.84217094e-14 64.2772343,2.84217094e-14 Z M48.5541562,65.9986695 C48.5541562,57.217953 55.6839036,50.0963855 64.4752165,50.0963855 C73.2658635,50.0963855 80.3929471,57.217953 80.3929471,65.9986695 C80.3929471,74.7800512 73.2658635,81.9036145 64.4752165,81.9036145 C55.6839036,81.9036145 48.5541562,74.7800512 48.5541562,65.9986695 L48.5541562,65.9986695 Z" id="circle-logo-horizontal-black" fill="#151514"></path>
            </g>
        </g>
    </g>
</svg>