<?xml version="1.0" encoding="UTF-8"?>
<svg width="542px" height="169px" viewBox="0 0 542 169" version="1.1" xmlns="http://www.w3.org/2000/svg" xmlns:xlink="http://www.w3.org/1999/xlink">
    <title>logo-brand-ext-travis-grey-400</title>
    <defs>
        <filter id="filter-1">
            <feColorMatrix in="SourceGraphic" type="matrix" values="0 0 0 0 0.611765 0 0 0 0 0.639216 0 0 0 0 0.686275 0 0 0 1.000000 0"></feColorMatrix>
        </filter>
        <filter id="filter-2">
            <feColorMatrix in="SourceGraphic" type="matrix" values="0 0 0 0 0.000000 0 0 0 0 0.000000 0 0 0 0 0.000000 0 0 0 1.000000 0"></feColorMatrix>
        </filter>
    </defs>
    <g id="logo-brand-ext-travis-grey-400" stroke="none" stroke-width="1" fill="none" fill-rule="evenodd">
        <g filter="url(#filter-1)" id="Group">
            <g>
                <g filter="url(#filter-2)" id="travis-ci-monochrome-logo-svg-vector">
                    <g>
                        <path d="M112.748123,102.017057 C112.953549,107.716407 115.999046,107.673815 119.620933,107.540714 C124.499312,107.451537 127.177168,105.954826 129.625,107.134759 C129.586441,106.998331 128.821909,104.710339 125.443343,105.108309 C125.835581,104.261792 126.002448,103.115799 125.883447,101.54189 C125.438689,95.8465332 122.128598,91.3224583 118.497403,91.4509 C114.875516,91.5746831 112.54735,96.3043978 112.748123,102.017057 L112.748123,102.017057 Z M118.156356,95.0685627 C118.647833,95.0585898 119.122989,95.2452407 119.476526,95.5871523 C119.830063,95.9290638 120.032784,96.3979991 120.039763,96.8900385 C120.058313,97.9130092 119.246676,98.7582265 118.224831,98.780061 C117.198845,98.7959954 116.353888,97.9769658 116.336769,96.9499336 C116.328416,96.4587844 116.515526,95.9844718 116.856854,95.6315542 C117.198181,95.2786366 117.665702,95.0760895 118.156356,95.0685627 Z M63.0196393,108.567582 C63.395922,108.576234 63.7888249,108.567582 64.1897056,108.558931 C64.5407255,108.558931 64.8910806,108.550279 65.2580559,108.537635 C68.8932393,108.503029 71.9048304,108.845096 71.8576289,103.141088 C71.797796,97.4377458 69.2688572,92.8191697 65.6343386,92.8577688 C62.0077978,92.8917093 58.4962692,97.5695149 58.7056845,103.26953 C58.7695063,104.75759 58.9875641,105.826384 59.3372544,106.600362 C56.1767457,107.400294 55.3018552,109.354204 55.25,109.477987 C57.2404424,108.4052 59.4914904,108.558931 63.0196393,108.567582 L63.0196393,108.567582 Z M66.1422538,96.445484 C67.1673914,96.4108779 68.0170191,97.2234545 68.0515893,98.2496568 C68.0757742,99.2740161 67.2678362,100.125047 66.2446346,100.152989 C65.7526473,100.167662 65.2750981,99.9854865 64.9176424,99.6467687 C64.5601868,99.3080509 64.3522916,98.8407129 64.3399528,98.3481509 C64.3251191,97.8560354 64.5070573,97.3783369 64.8454102,97.0210169 C65.1837632,96.6636969 65.6505587,96.4562958 66.1422538,96.4448185 L66.1422538,96.445484 Z M74.6724362,35.6632934 L84.8639798,35.6632934 L84.8639798,31.4559969 L87.1575757,31.4559969 L87.1575757,50.8939462 L83.6939135,50.8939462 L83.6939135,61.7682303 L101.53543,61.7682303 L101.53543,50.8939462 L98.0671146,50.8939462 L98.0671146,31.4559969 L100.365364,31.4559969 L100.365364,35.6632934 L110.56555,35.6632934 L110.56555,21.2578616 L74.6724362,21.2578616 L74.6724362,35.6632934 L74.6724362,35.6632934 Z" id="Shape" fill="#403E42" fill-rule="nonzero"></path>
                        <path d="M169.938251,63.0659631 C169.872953,61.8257935 169.755398,60.5889435 169.585899,59.3587234 C169.49965,58.7388397 169.409389,58.118956 169.281019,57.5118051 C169.160671,56.8832095 169.040323,56.301524 168.838407,55.6173064 L168.709367,55.1348024 L168.370388,54.8633938 C166.415407,53.3307732 164.314672,52.1680725 162.179838,51.1440916 C160.414739,50.3084213 158.622896,49.5806444 156.814338,48.9131804 C151.758399,34.8589089 143.080664,22.3982412 131.658334,13.7225499 C119.857578,4.74931441 105.977481,0 91.5264013,0 C77.0672985,0 63.1912133,4.74931441 51.3864451,13.7225499 C42.3958062,20.5513228 35.1141042,29.7309629 29.9545326,40.1811969 L29.9297945,40.1811969 C28.5237435,43.0184936 27.2803589,45.933893 26.205703,48.9131804 C24.3924649,49.5806444 22.6012906,50.3084213 20.8355229,51.1434214 C18.696009,52.1687426 16.5999539,53.3307732 14.644973,54.8633938 L14.3013136,55.1348024 L14.1729428,55.6173064 C13.9935417,56.2412302 13.8442709,56.8734644 13.7256506,57.5118051 C13.605303,58.118956 13.507019,58.7388397 13.4247815,59.3587234 C13.3004222,60.2413038 13.2188533,61.1372871 13.1459761,62.0326002 L13.176063,62.0326002 C13.1449825,62.3781194 13.1204628,62.7242 13.1025172,63.0706541 C12.9765564,65.5524257 13.0485481,68.0403166 13.3178058,70.5105989 C13.5805175,72.9876233 14.0401915,75.4396599 14.6924435,77.8433205 C15.0345259,79.0532263 15.4345888,80.2459036 15.8912399,81.4172014 C16.1185633,82.0069286 16.3679504,82.5926349 16.6467558,83.1823621 C16.784487,83.4752153 16.9349216,83.7640476 17.0853561,84.0609216 L17.330063,84.4958454 C17.4243354,84.6593607 17.4891894,84.7759658 17.6309322,84.9863912 L17.8756391,85.3744049 L18.2707806,85.5767886 C18.6873172,85.791905 19.0356568,85.9513994 19.4140834,86.1323384 L20.5132587,86.6315961 C20.7151753,86.7133537 20.9130803,86.7991322 21.1230201,86.8855809 C16.1098715,91.527002 10.6628027,97.5596432 5.95052319,105.017012 L0,114.416459 L8.3554706,107.066314 C8.50189359,106.941667 15.503453,100.866136 27.1885422,93.9730296 L27.3516801,95.3200202 L27.7769085,98.717653 L29.9164225,116.142752 C29.9632244,116.474473 30.1350541,116.772017 30.4105165,116.960998 L34.7965201,120.048354 C34.8734089,120.293627 34.9462861,120.53957 35.0198319,120.793555 C35.122796,121.14203 35.2170683,121.486484 35.3247126,121.834959 L36.325604,124.862002 C38.5206116,131.704178 41.63093,137.874199 45.4151953,143.294998 C45.2346738,143.35129 45.0501408,143.402221 44.8696193,143.454493 C42.5890311,142.395664 34.6200102,138.692445 31.943612,137.482164 L26.3461086,134.963761 L29.6583436,140.143308 C29.8990389,140.517919 35.6122098,149.448265 40.2736758,155.467504 C44.6422959,161.086666 50.6175572,166.821763 61.8894528,166.821763 C63.3061036,166.815653 64.7214614,166.735125 66.129702,166.580511 C69.4934191,166.188476 72.0193828,165.887581 73.9395966,165.637617 C85.7704401,170.003609 98.8208067,170.261615 111.205918,165.563901 C114.450626,164.32962 117.569486,162.785659 120.51949,160.953307 C120.579664,160.944595 120.635157,160.926501 120.686639,160.914439 C125.291943,159.803339 130.519712,158.550169 133.101838,157.827083 C133.513694,157.715169 134.033863,157.589852 134.570748,157.461184 C138.166468,156.638916 144.175828,155.234964 147.376407,148.810958 C150.602393,142.326639 155.869609,132.397108 155.921091,132.298596 L158.386881,127.67795 L153.597044,129.76679 C153.334954,129.878704 147.26074,132.534487 144.102951,134.193095 C143.995975,134.257429 143.858244,134.313721 143.733885,134.374034 C146.302639,129.124792 147.583004,124.94376 148.042331,123.338094 L149.774,116.177599 L154.761073,104.995567 C154.761073,104.995567 156.161118,92.7721306 156.191873,92.7801723 L156.681287,88.1039037 C157.119219,87.9189438 159.782914,87.7339839 160.302415,87.5275794 C161.045896,87.234056 161.788708,86.9458939 162.532189,86.6228842 L163.627353,86.1236265 C164.014471,85.9426875 164.358131,85.7831931 164.774667,85.5674066 L165.16914,85.365693 L165.419196,84.9783495 C165.556259,84.767254 165.633147,84.6466279 165.715385,84.4871335 L165.95608,84.0522097 C166.12323,83.7553357 166.264973,83.4665034 166.398024,83.1743204 C166.670768,82.593611 166.925844,82.004729 167.1629,81.4084895 C167.612879,80.2356896 168.009982,79.0431901 168.353004,77.8346086 C169.005556,75.4106958 169.478255,72.9693592 169.727642,70.501887 C170.002436,68.0391058 170.06261,65.5508591 169.938251,63.0659631 L169.938251,63.0659631 Z M56.1247999,93.2365408 C56.2317756,93.1628249 60.7127201,90.2182097 68.0285206,86.6315961 C76.0017433,86.0258291 83.9949815,85.72288 91.991077,85.72288 C94.087132,85.72288 96.1444084,85.7530366 98.1762781,85.7878841 C96.7588501,86.9331611 95.2638647,88.0134342 93.7087055,88.9482858 L88.5411107,92.0825518 C85.2803577,92.4786073 82.4541935,93.2921628 82.2990787,93.3357222 C82.2042511,93.3620223 82.1133947,93.4010186 82.0289651,93.4516572 C81.7748978,93.5984188 81.581673,93.8390007 81.4960924,94.1238121 L76.2121615,111.566334 L48.0106932,117.848269 L39.1223499,111.609224 L36.5362124,90.6269979 C41.579448,89.6928164 48.3322889,88.6205851 56.4336922,87.7118691 C55.546158,88.7649619 54.7092368,89.8598816 53.9257807,90.9928968 L49.1011767,97.934254 L56.1247999,93.2365408 L56.1247999,93.2365408 Z M94.1860846,166.236056 C89.5333103,166.546333 84.8083275,165.999495 80.1816285,164.728901 C80.5680782,164.651835 80.8475522,164.608275 81.1912117,164.570077 C81.5689696,164.517806 89.8729581,163.42413 93.6057414,157.86193 L93.9580926,157.869972 L94.8861068,157.86126 C95.5005485,157.86126 96.0588279,157.809659 96.655886,157.784193 C98.073314,157.667588 99.4439401,157.461184 100.805874,157.185754 C100.951629,157.327825 101.08936,157.469896 101.239795,157.624699 C104.044564,160.41049 107.528628,162.007444 111.355684,162.287565 C104.917084,164.90984 98.8555738,165.92645 94.1860846,166.236056 L94.1860846,166.236056 Z M94.6073014,156.031765 C95.306655,154.468318 95.8355161,153.249995 96.2346692,152.332568 C97.2290423,153.444399 98.2432461,154.538251 99.2767906,155.613595 C98.3608112,155.751645 97.4588723,155.86825 96.5696368,155.941296 C95.9859507,155.966761 95.3755206,156.031765 94.8172412,156.031765 L94.6066328,156.031765 L94.6073014,156.031765 Z M80.7699949,120.026909 L83.2912783,119.458627 C83.7052919,119.365866 84.0371115,119.05634 84.1591187,118.649092 L89.4263346,101.283636 C90.3369652,101.16301 91.13594,101.098677 91.8272704,101.098677 C92.4972057,101.098677 93.3095524,101.163681 94.2161715,101.283636 L99.637165,119.165774 C99.7748962,119.622142 100.165357,119.953864 100.629365,120.005465 L102.639839,120.233314 L103.155328,120.289606 L137.78871,124.238098 C138.076208,124.272275 138.359693,124.190517 138.595708,124.027002 L142.075761,121.589686 L145.293056,119.33331 L146.48316,118.494289 C146.289267,119.325268 146.075315,120.151556 145.851335,120.965782 C145.522452,122.012924 145.177414,123.054901 144.816345,124.091336 C143.394237,128.147721 141.800968,131.828825 140.065287,135.152742 C139.558941,135.186108 139.051664,135.203317 138.544226,135.204343 C136.860028,135.204343 135.150422,135.066963 133.255615,134.890045 C129.966112,134.584459 124.755059,133.98602 123.11365,133.80106 C121.68285,132.659804 116.824817,128.797761 112.790496,125.607203 C112.636718,125.486577 112.498987,125.357239 112.357244,125.245325 C111.64853,124.642195 110.840864,123.961998 109.204135,123.961998 C107.70915,123.961998 105.535538,124.504815 100.281694,126.093058 C103.018266,124.044426 103.039661,121.404727 103.039661,121.404727 C103.039661,121.404727 99.1477511,125.03892 92.8669405,125.839743 C86.6035134,126.649278 81.6766139,122.786565 81.6766139,122.786565 C81.8825421,123.45872 82.1747195,124.977937 83.5968277,126.265955 C81.9253324,126.071613 80.1214547,125.934234 78.2266476,125.934234 C77.5480206,125.934234 76.8520099,125.951657 76.1860862,125.985835 C72.3282751,126.192909 66.8992584,132.031209 63.0882492,137.9258 C61.2155059,138.520218 55.3605922,140.38456 48.5903678,142.37824 C44.5908138,136.832124 41.8803171,131.20425 40.346553,127.583459 C39.4526374,125.473844 38.9545318,124.039735 38.8428759,123.699972 L38.8428759,123.69126 C38.7185166,123.346805 38.584797,122.980907 38.4691295,122.614337 L40.0931544,123.751573 L40.0931544,123.759614 L44.1094232,126.584274 L45.4499624,127.519125 C45.6518791,127.661196 45.896586,127.733572 46.1285895,127.733572 C46.2141701,127.733572 46.3004192,127.72553 46.39068,127.708106 L80.7699949,120.026909 L80.7699949,120.026909 Z M102.137053,94.1238121 C102.017902,93.7402738 101.714448,93.4424125 101.329387,93.3310311 C101.153545,93.2754091 97.6694807,92.2809146 93.970796,91.9666168 L94.6494231,91.9143456 C95.2337778,91.8714563 104.946503,90.68329 116.550023,86.6704645 C129.398473,87.6562471 139.888777,89.2371181 147.062835,90.5452403 L144.524168,108.397221 L135.562947,114.679156 L107.394909,111.471174 L102.137053,94.1238121 Z M163.975693,70.0756751 C163.661452,72.374941 162.62245,76.8528469 162.62245,76.8528469 L161.810103,76.9868758 C161.384875,76.8702706 157.4241,75.8409286 150.602393,74.5756957 C150.821693,74.5281154 151.032302,74.4805352 151.23823,74.433625 C152.653658,74.0858264 154.043238,73.6397741 155.39691,73.0986971 C156.066846,72.810535 156.736781,72.5042789 157.368606,72.1424008 C157.995751,71.7765019 158.610193,71.3717346 159.090915,70.8248967 C152.260517,73.0638496 138.145073,72.0479105 125.596824,70.74783 C114.131035,69.5589936 102.622456,68.7930184 91.0583826,68.7668828 C79.4983213,68.7930184 68.0031139,69.5636846 56.5246215,70.74783 C43.9763722,72.0479105 29.8649404,73.0638496 23.0345421,70.8248967 C23.5159328,71.3677137 24.1337174,71.7765019 24.7655426,72.1424008 C25.3926877,72.5042789 26.0586114,72.8058439 26.7285467,73.0986971 C28.0840586,73.6384579 29.4748806,74.0844787 30.8912385,74.433625 C31.3893441,74.5495601 31.8968101,74.6614742 32.4036075,74.7519437 C26.1789591,75.9360891 22.5752152,76.8749616 22.1707134,76.9868758 C22.1707134,76.9868758 20.7359018,77.2194159 20.4223293,76.1170281 C19.7998645,73.9122526 19.3826593,72.3709201 19.0690867,70.0756751 C18.7693432,67.7862052 18.6259296,65.4788916 18.6398468,63.1698355 C18.6438583,62.7905337 18.6351666,62.0326002 18.6351666,62.0326002 C18.6565617,61.2579131 18.6913288,60.4825559 18.764206,59.7071986 C18.8069963,59.1348952 20.9077315,57.3013797 22.7122778,56.2586348 C24.6625785,55.1220696 26.7118318,54.0974186 28.7991951,53.1458133 C30.8651632,52.1640516 37.5625105,50.7386541 41.6008431,50.0068563 C45.6391757,49.2663466 60.0808949,47.3463824 61.1640238,46.940945 C62.2424726,46.5281359 68.483836,41.7051056 69.5749881,41.3050293 C67.2816966,41.683661 35.5868031,46.5361777 34.1606833,46.9885252 C44.449071,20.0219086 64.6434084,6.88908595 91.5223897,6.88908595 C118.392679,6.88908595 138.591697,19.2894407 148.888108,46.2607483 C135.296845,42.6399573 116.472465,40.9518632 114.178505,40.5685405 C115.269657,40.9692869 121.442824,45.3218758 122.58947,45.4686374 C131.988622,46.6916512 146.809436,49.9854117 147.883205,50.4116236 C150.014027,51.2767802 152.148861,52.1680725 154.219509,53.1458133 C156.312221,54.0974186 158.356794,55.1220696 160.307095,56.2586348 C162.110973,57.3054006 164.207696,59.1348952 164.25851,59.7078688 C164.358131,60.8618577 164.400921,62.0111556 164.414913,63.1658146 C164.431008,65.4731223 164.271882,67.789812 163.975693,70.0756751 L163.975693,70.0756751 Z" id="Shape" fill="#403E42" fill-rule="nonzero"></path>
                    </g>
                </g>
                <polyline id="Fill-45" fill="#000000" points="217.935486 63.1888596 198 63.1888596 198 53 250 53 250 63.1888596 230.17073 63.1888596 230.17073 121 217.935486 121 217.935486 63.1888596"></polyline>
                <path d="M248,70.2400782 L258.066581,70.2400782 L258.913359,79.2337679 L259.337601,79.2337679 C263.046522,72.6177969 268.555698,69 274.066581,69 C276.715322,69 278.409731,69.3098113 280,70.0335373 L277.880495,80.3705756 C276.078532,79.8542234 274.701665,79.5444121 272.476312,79.5444121 C268.344003,79.5444121 263.364063,82.3360454 260.185233,89.9855537 L260.185233,121 L248,121 L248,70.2400782" id="Fill-46" fill="#000000"></path>
                <path d="M301.477458,112.46 C305.850165,112.46 309.240004,110.392175 313.175,106.876372 L313.175,95.5 C298.635418,97.2587346 293.825,100.877845 293.825,105.944934 C293.825,110.495483 296.994662,112.46 301.477458,112.46 Z M312.759362,88.4499977 C312.653041,83.0991756 310.311406,78.5707917 303.287358,78.5707917 C298.071625,78.5707917 293.175713,80.8341546 288.598764,83.5103947 L284.128993,75.5861373 C289.876331,72.0866301 297.220199,69 305.521815,69 C318.613878,69 325,76.7178188 325,90.8169944 L325,120.765514 L314.994676,120.765514 L314.036929,115.207424 L313.717966,115.207424 C309.034696,119.016175 303.712642,122 297.54002,122 C288.386122,122 282,116.03152 282,107.181191 C282,96.3750841 291.36654,90.7141896 312.759362,88.4499977 L312.759362,88.4499977 Z" id="Fill-47" fill="#000000"></path>
                <path d="M328,70 L339.924058,70 L347.872883,96.4869645 C349.19714,101.472411 350.726645,106.665376 352.051722,111.860014 L352.458933,111.860014 C353.884993,106.665376 355.312695,101.472411 356.739575,96.4869645 L364.687579,70 L376,70 L358.981699,121 L345.427154,121 L328,70" id="Fill-48" fill="#000000"></path>
                <path d="M383.071429,120 L395.928571,120 L395.928571,69.2173913 L383.071429,69.2173913 L383.071429,120 Z M382,53.9292482 C382,49.8349616 385.168331,47 389.5,47 C393.831669,47 397,49.8349616 397,53.9292482 C397,57.9186616 393.831669,60.7536232 389.5,60.7536232 C385.168331,60.7536232 382,57.9186616 382,53.9292482 L382,53.9292482 Z" id="Fill-49" fill="#000000"></path>
                <path d="M407.871787,107.386801 C412.657179,110.885479 417.225292,113.046866 422.662521,113.046866 C428.427421,113.046866 431.146035,110.47426 431.146035,106.975582 C431.146035,102.755612 425.381136,100.903468 419.726628,98.8448856 C412.657179,96.3750841 404.718614,92.5671625 404.718614,84.1288814 C404.718614,75.276894 412.222621,69 424.185226,69 C431.580593,69 437.561895,71.8810205 441.911853,75.0712844 L436.148706,82.2759085 C432.450584,79.7024731 428.644699,77.952305 424.403381,77.952305 C419.073915,77.952305 416.571703,80.3193017 416.571703,83.5103947 C416.571703,87.421121 421.902045,89.0684844 427.665192,91.0226039 C434.95192,93.5960392 443,96.8891079 443,106.357095 C443,115.001815 435.712396,122 422.227963,122 C414.941236,122 407.21995,119.016175 402,115.001815 L407.871787,107.386801" id="Fill-50" fill="#000000"></path>
                <path d="M501.34549,51 C509.648432,51 516.394469,55.08397 520.650458,59.6918288 L514.007268,67.231271 C510.47789,63.7757988 506.638302,61.5764784 501.449172,61.5764784 C490.343464,61.5764784 482.350732,71.001414 482.350732,86.3958128 C482.350732,101.99943 489.719698,111.423522 501.032771,111.423522 C507.053031,111.423522 511.516385,108.909531 515.35681,104.617186 L522,112.052019 C516.498151,118.439919 509.440232,122 500.825406,122 C483.596591,122 470,109.434263 470,86.7096399 C470,64.2996875 483.907638,51 501.34549,51" id="Fill-51" fill="#000000"></path>
                <polygon id="Fill-52" fill="#000000" points="531 121 542 121 542 53 531 53"></polygon>
            </g>
        </g>
    </g>
</svg>