<?xml version="1.0" encoding="UTF-8"?>
<svg width="587px" height="150px" viewBox="0 0 587 150" version="1.1" xmlns="http://www.w3.org/2000/svg" xmlns:xlink="http://www.w3.org/1999/xlink">
    <title>logo-brand-ext-slack-grey-400</title>
    <defs>
        <filter id="filter-1">
            <feColorMatrix in="SourceGraphic" type="matrix" values="0 0 0 0 0.611765 0 0 0 0 0.639216 0 0 0 0 0.686275 0 0 0 1.000000 0"></feColorMatrix>
        </filter>
    </defs>
    <g id="logo-brand-ext-slack-grey-400" stroke="none" stroke-width="1" fill="none" fill-rule="evenodd">
        <g filter="url(#filter-1)" id="Slack_Monochrome_Black">
            <g transform="translate(69.000000, 18.000000)">
                <g id="Group" transform="translate(144.000000, 3.000000)" fill="#000000" fill-rule="nonzero">
                    <path d="M0.452348536,88.3878505 L6.06147039,75.3336449 C12.1229408,79.8663551 20.1747447,82.2233645 28.136079,82.2233645 C34.0166099,82.2233645 37.7258679,79.9570093 37.7258679,76.5121495 C37.6353982,66.9028037 2.5331518,74.4271028 2.26174268,50.3130841 C2.17127297,38.0747664 13.0276378,28.646729 28.4074881,28.646729 C37.5449285,28.646729 46.682369,30.9130841 53.1961879,36.0803738 L47.9489449,49.4065421 C41.9779442,45.5990654 34.5594282,42.8794393 27.502791,42.8794393 C22.7078965,42.8794393 19.5414568,45.1457944 19.5414568,48.046729 C19.6319265,57.4747664 55.005582,52.3074766 55.3674609,75.3336449 C55.3674609,87.8439252 44.7825051,96.6373832 29.5835943,96.6373832 C18.4558203,96.6373832 8.23274336,94.0084112 0.452348536,88.3878505" id="Path"></path>
                    <path d="M215.679782,70.6196262 C212.875221,75.5149533 207.627978,78.8691589 201.566508,78.8691589 C192.610007,78.8691589 185.37243,71.6168224 185.37243,62.6420561 C185.37243,53.6672897 192.610007,46.4149533 201.566508,46.4149533 C207.627978,46.4149533 212.875221,49.7691589 215.679782,54.664486 L231.150102,46.0523364 C225.360041,35.717757 214.232267,28.646729 201.566508,28.646729 C182.839278,28.646729 167.640368,43.8766355 167.640368,62.6420561 C167.640368,81.4074766 182.839278,96.6373832 201.566508,96.6373832 C214.322737,96.6373832 225.360041,89.6570093 231.150102,79.2317757 L215.679782,70.6196262 Z" id="Path"></path>
                    <rect id="Rectangle" x="63.1478557" y="0.453271028" width="19.3605174" height="94.9149533"></rect>
                    <polygon id="Path" points="238.749558 0.453271028 238.749558 95.3682243 258.110075 95.3682243 258.110075 66.9028037 281.089381 95.3682243 305.87808 95.3682243 276.656365 61.5542056 303.706807 30.0065421 280.003744 30.0065421 258.110075 56.2056075 258.110075 0.453271028"></polygon>
                    <path d="M140.047107,70.8009346 C137.242546,75.4242991 131.452485,78.8691589 124.938666,78.8691589 C115.982165,78.8691589 108.744588,71.6168224 108.744588,62.6420561 C108.744588,53.6672897 115.982165,46.4149533 124.938666,46.4149533 C131.452485,46.4149533 137.242546,50.0411215 140.047107,54.7551402 L140.047107,70.8009346 Z M140.047107,30.0065421 L140.047107,37.7121495 C136.880667,32.3635514 129.009803,28.646729 120.777059,28.646729 C103.768754,28.646729 90.3792376,43.6953271 90.3792376,62.5514019 C90.3792376,81.4074766 103.768754,96.6373832 120.777059,96.6373832 C129.009803,96.6373832 136.880667,92.9205607 140.047107,87.5719626 L140.047107,95.2775701 L159.407624,95.2775701 L159.407624,30.0065421 L140.047107,30.0065421 Z" id="Shape"></path>
                </g>
                <g id="Group" fill="#000000" fill-rule="nonzero">
                    <g transform="translate(0.692771, 60.456551)" id="Path">
                        <path d="M23.9371502,11.9843943 C23.9371502,18.5946305 18.5946305,23.9371502 11.9843943,23.9371502 C5.37415805,23.9371502 0.0316383645,18.5946305 0.0316383645,11.9843943 C0.0316383645,5.37415805 5.37415805,0.0316383645 11.9843943,0.0316383645 L23.9371502,0.0316383645 L23.9371502,11.9843943 Z"></path>
                        <path d="M29.9135281,11.9843943 C29.9135281,5.37415805 35.2560478,0.0316383645 41.866284,0.0316383645 C48.4765203,0.0316383645 53.8190399,5.37415805 53.8190399,11.9843943 L53.8190399,41.866284 C53.8190399,48.4765203 48.4765203,53.8190399 41.866284,53.8190399 C35.2560478,53.8190399 29.9135281,48.4765203 29.9135281,41.866284 L29.9135281,11.9843943 Z"></path>
                    </g>
                    <g id="Path">
                        <path d="M42.5590551,24.4488189 C35.9488189,24.4488189 30.6062992,19.1062992 30.6062992,12.496063 C30.6062992,5.88582677 35.9488189,0.543307087 42.5590551,0.543307087 C49.1692913,0.543307087 54.511811,5.88582677 54.511811,12.496063 L54.511811,24.4488189 L42.5590551,24.4488189 Z"></path>
                        <path d="M42.5590551,30.515748 C49.1692913,30.515748 54.511811,35.8582677 54.511811,42.4685039 C54.511811,49.0787402 49.1692913,54.4212598 42.5590551,54.4212598 L12.5866142,54.4212598 C5.97637795,54.4212598 0.633858268,49.0787402 0.633858268,42.4685039 C0.633858268,35.8582677 5.97637795,30.515748 12.5866142,30.515748 L42.5590551,30.515748 Z"></path>
                    </g>
                    <g transform="translate(60.456551, 0.000000)" id="Path">
                        <path d="M30.0040793,42.4685039 C30.0040793,35.8582677 35.346599,30.515748 41.9568352,30.515748 C48.5670714,30.515748 53.9095911,35.8582677 53.9095911,42.4685039 C53.9095911,49.0787402 48.5670714,54.4212598 41.9568352,54.4212598 L30.0040793,54.4212598 L30.0040793,42.4685039 Z"></path>
                        <path d="M24.0277014,42.4685039 C24.0277014,49.0787402 18.6851817,54.4212598 12.0749455,54.4212598 C5.46470923,54.4212598 0.122189546,49.0787402 0.122189546,42.4685039 L0.122189546,12.496063 C0.122189546,5.88582677 5.46470923,0.543307087 12.0749455,0.543307087 C18.6851817,0.543307087 24.0277014,5.88582677 24.0277014,12.496063 L24.0277014,42.4685039 Z"></path>
                    </g>
                    <g transform="translate(60.456551, 60.456551)" id="Path">
                        <path d="M12.0749455,29.9135281 C18.6851817,29.9135281 24.0277014,35.2560478 24.0277014,41.866284 C24.0277014,48.4765203 18.6851817,53.8190399 12.0749455,53.8190399 C5.46470923,53.8190399 0.122189546,48.4765203 0.122189546,41.866284 L0.122189546,29.9135281 L12.0749455,29.9135281 Z"></path>
                        <path d="M12.0749455,23.9371502 C5.46470923,23.9371502 0.122189546,18.5946305 0.122189546,11.9843943 C0.122189546,5.37415805 5.46470923,0.0316383645 12.0749455,0.0316383645 L42.0473864,0.0316383645 C48.6576226,0.0316383645 54.0001423,5.37415805 54.0001423,11.9843943 C54.0001423,18.5946305 48.6576226,23.9371502 42.0473864,23.9371502 L12.0749455,23.9371502 Z"></path>
                    </g>
                </g>
            </g>
        </g>
    </g>
</svg>