<?xml version="1.0" encoding="UTF-8"?>
<svg width="40px" height="40px" viewBox="0 0 40 40" version="1.1" xmlns="http://www.w3.org/2000/svg" xmlns:xlink="http://www.w3.org/1999/xlink">
    <title>Artboard</title>
    <defs>
        <path d="M32.8926277,15.5918417 C32.8926277,13.7618656 31.5117668,12.5684029 29.6435432,12.5684029 L23.9982589,12.5684029 L23.9982589,18.5357163 L29.6435432,18.5357163 C31.5117668,18.5357163 32.8926277,17.3820357 32.8926277,15.5918417 Z M17.0127272,6.8 L30.577655,6.8 C36.6696884,6.8 40,10.817991 40,15.6316238 C40,20.4054745 36.6696884,24.3439013 30.577655,24.3439013 L23.9982589,24.3439013 L23.9982589,33.3346535 L17.0127272,33.3346535 L17.0127272,33.3316719 L14.0694215,33.3316719 L11.5218439,28.5279846 L17.0127272,28.5279846 L17.0127272,26.0898468 L10.2288069,26.0898468 L7.68122928,21.2861595 L17.0127272,21.2861595 L17.0127272,18.8480216 L6.38819226,18.8480216 L3.84061464,14.0443344 L17.0127272,14.0443344 L17.0127272,11.6061965 L2.54757762,11.6061965 L0,6.80250922 L17.0127272,6.80250922 L17.0127272,6.8 Z" id="path-1"></path>
    </defs>
    <g id="Artboard" stroke="none" stroke-width="1" fill="none" fill-rule="evenodd">
        <g id="Brand-/-Logo-/-Icon">
            <mask id="mask-2" fill="white">
                <use xlink:href="#path-1"></use>
            </mask>
            <use id="Mask" fill="#FFFFFF" xlink:href="#path-1"></use>
            <g id="Group" mask="url(#mask-2)">
                <g transform="translate(0.000000, 5.215842)" id="Brand-/-Colors-/-Primary">
                    <rect id="Rectangle" fill="#3F3BC4" x="0" y="0" width="41.5841584" height="29.7029703"></rect>
                </g>
            </g>
        </g>
    </g>
</svg>