<?xml version="1.0" encoding="UTF-8"?>
<svg width="300px" height="40px" viewBox="0 0 300 40" version="1.1" xmlns="http://www.w3.org/2000/svg" xmlns:xlink="http://www.w3.org/1999/xlink">
    <title>Artboard</title>
    <defs>
        <path d="M43.4943825,12.7768116 C43.4943825,10.2434783 41.6684508,8.59130435 39.1980726,8.59130435 L31.733234,8.59130435 L31.733234,16.8521739 L39.1980726,16.8521739 C41.6684508,16.8521739 43.4943825,15.2550725 43.4943825,12.7768116 Z M74.0543063,37.3391304 L68.0394724,24.8927536 L63.3135314,24.8927536 L63.3135314,37.3391304 L54.076465,37.3391304 L54.076465,0.605797101 L72.0135591,0.605797101 C79.9617325,0.605797101 84.472858,6.00289855 84.472858,12.8318841 C84.472858,19.2202899 80.6598829,22.6347826 77.3302427,23.8463768 L84.6339696,37.3391304 L74.0543063,37.3391304 Z M75.0746799,12.7217391 C75.0746799,10.1884058 73.0339327,8.59130435 70.6172583,8.59130435 L63.3135314,8.59130435 L63.3135314,16.8521739 L70.6172583,16.8521739 C73.0339327,16.8521739 75.0746799,15.2550725 75.0746799,12.7217391 Z M86.6234321,37.3391304 L86.6234321,0.605797101 L112.884627,0.605797101 L112.884627,8.59130435 L95.8604985,8.59130435 L95.8604985,14.7043478 L112.5087,14.7043478 L112.5087,22.7449275 L95.8604985,22.7449275 L95.8604985,29.3536232 L112.884627,29.3536232 L112.884627,37.3391304 L86.6234321,37.3391304 Z M115.30372,37.3391304 L115.30372,0.605797101 L141.564915,0.605797101 L141.564915,8.59130435 L124.540787,8.59130435 L124.540787,14.7043478 L141.188988,14.7043478 L141.188988,22.7449275 L124.540787,22.7449275 L124.540787,37.3391304 L115.30372,37.3391304 Z M143.608081,37.3391304 L143.608081,0.605797101 L152.845148,0.605797101 L152.845148,29.0782609 L167.237786,29.0782609 L167.237786,37.3391304 L143.608081,37.3391304 Z M169.066137,37.3391304 L169.066137,0.605797101 L178.303203,0.605797101 L178.303203,37.3391304 L169.066137,37.3391304 Z M179.970443,19 C179.970443,7.32463768 188.67047,0 199.357541,0 C207.198307,0 212.031656,3.96521739 214.663146,8.53623188 L206.929788,12.7217391 C205.479783,10.2985507 202.740886,8.37101449 199.357541,8.37101449 C193.503819,8.37101449 189.368621,12.9971014 189.368621,19 C189.368621,25.0028986 193.503819,29.6289855 199.357541,29.6289855 C202.150143,29.6289855 204.674225,28.6376812 206.12423,27.426087 L206.12423,24.342029 L197.907537,24.342029 L197.907537,16.4666667 L215.200184,16.4666667 L215.200184,30.8405797 C211.333505,35.1913043 206.12423,38 199.357541,38 C188.67047,38 179.970443,30.6753623 179.970443,19 Z M22.4961676,0.605797101 L40.4332617,0.605797101 C48.4888429,0.605797101 52.8925606,6.16811594 52.8925606,12.8318841 C52.8925606,19.4405797 48.4888429,24.8927536 40.4332617,24.8927536 L31.733234,24.8927536 L31.733234,37.3391304 L22.4961676,37.3391304 L22.4961676,37.3350029 L18.6041933,37.3350029 L15.2354957,30.6850029 L22.4961676,30.6850029 L22.4961676,27.3097588 L13.5256947,27.3097588 L10.1569971,20.6597588 L22.4961676,20.6597588 L22.4961676,17.2845148 L8.44719615,17.2845148 L5.07849856,10.6345148 L22.4961676,10.6345148 L22.4961676,7.25927075 L3.36869759,7.25927075 L0,0.609270745 L22.4961676,0.609270745 L22.4961676,0.605797101 Z M298,0.624154589 L293.746701,9.02040733 L271.755203,9.02040733 L271.755203,11.8086059 L292.334281,11.8086059 L288.965583,18.4586059 L271.755203,18.4586059 L271.755203,21.2468044 L287.553162,21.2468044 L284.184465,27.8968044 L271.755203,27.8968044 L271.755203,30.6850029 L282.772044,30.6850029 L279.403346,37.3350029 L271.755203,37.3350029 L271.755203,37.3391304 L262.518136,37.3391304 L262.518136,8.71291941 L252.475512,8.71291941 L252.475512,0.605797101 L281.744123,0.605797101 L281.744123,0.624154589 L298,0.624154589 L298,0.624154589 Z M241.786021,37.3391304 L241.786021,22.5797101 L226.910048,22.5797101 L226.910048,37.3391304 L217.672982,37.3391304 L217.672982,0.605797101 L226.910048,0.605797101 L226.910048,14.3188406 L241.786021,14.3188406 L241.786021,0.605797101 L251.023088,0.605797101 L251.023088,37.3391304 L241.786021,37.3391304 Z" id="path-1"></path>
    </defs>
    <g id="Artboard" stroke="none" stroke-width="1" fill="none" fill-rule="evenodd">
        <g id="Brand/Wordmark" transform="translate(0.000000, 1.000000)">
            <mask id="mask-2" fill="white">
                <use xlink:href="#path-1"></use>
            </mask>
            <use id="Mask" fill="#FFFFFF" xlink:href="#path-1"></use>
            <g id="Group" mask="url(#mask-2)">
                <g transform="translate(0.000000, -1.000000)" id="Brand-/-Colors-/-Primary">
                    <rect id="Rectangle" fill="#3F3BC4" x="0" y="0" width="300" height="100"></rect>
                </g>
            </g>
        </g>
    </g>
</svg>